<mxfile host="app.diagrams.net" modified="2024-03-06T21:25:11.251Z" agent="Mozilla/5.0 (Windows NT 10.0; Win64; x64) AppleWebKit/537.36 (KHTML, like Gecko) Chrome/122.0.0.0 Safari/537.36" etag="caTIdPtL7VDe0ubMYKUC" version="24.0.2" type="google">
  <diagram name="P치gina-1" id="LVe3ZiUKt4aBDEtxLXB3">
    <mxGraphModel grid="1" page="1" gridSize="10" guides="1" tooltips="1" connect="1" arrows="1" fold="1" pageScale="1" pageWidth="827" pageHeight="1169" math="0" shadow="0">
      <root>
        <mxCell id="0" />
        <mxCell id="1" parent="0" />
        <object label="Actor" id="bLS4lGAptEQUfvGoCbaX-1">
          <mxCell style="shape=umlActor;verticalLabelPosition=bottom;verticalAlign=top;html=1;outlineConnect=0;" vertex="1" parent="1">
            <mxGeometry x="90" y="102.5" width="80" height="100" as="geometry" />
          </mxCell>
        </object>
        <mxCell id="bLS4lGAptEQUfvGoCbaX-16" value="" style="group" connectable="0" vertex="1" parent="1">
          <mxGeometry x="380" y="70" width="280" height="175" as="geometry" />
        </mxCell>
        <mxCell id="bLS4lGAptEQUfvGoCbaX-10" value="Puesto de Trabajo" style="verticalAlign=top;align=left;spacingTop=8;spacingLeft=2;spacingRight=12;shape=cube;size=10;direction=south;fontStyle=4;html=1;whiteSpace=wrap;strokeColor=default;fontFamily=Helvetica;fontSize=12;fontColor=default;fillColor=default;" vertex="1" parent="bLS4lGAptEQUfvGoCbaX-16">
          <mxGeometry width="280" height="150" as="geometry" />
        </mxCell>
        <mxCell id="bLS4lGAptEQUfvGoCbaX-11" value="Navegador Web" style="shape=module;align=left;spacingLeft=20;align=center;verticalAlign=top;whiteSpace=wrap;html=1;strokeColor=default;fontFamily=Helvetica;fontSize=12;fontColor=default;fillColor=default;" vertex="1" parent="bLS4lGAptEQUfvGoCbaX-16">
          <mxGeometry x="40" y="55" width="170" height="55" as="geometry" />
        </mxCell>
        <mxCell id="bLS4lGAptEQUfvGoCbaX-17" value="" style="endArrow=classic;startArrow=classic;html=1;rounded=0;fontFamily=Helvetica;fontSize=12;fontColor=default;" edge="1" parent="1" source="bLS4lGAptEQUfvGoCbaX-1" target="bLS4lGAptEQUfvGoCbaX-11">
          <mxGeometry width="50" height="50" relative="1" as="geometry">
            <mxPoint x="180" y="160" as="sourcePoint" />
            <mxPoint x="300" y="167" as="targetPoint" />
          </mxGeometry>
        </mxCell>
        <mxCell id="bLS4lGAptEQUfvGoCbaX-26" value="" style="group" connectable="0" vertex="1" parent="1">
          <mxGeometry x="317" y="370" width="510" height="290" as="geometry" />
        </mxCell>
        <mxCell id="bLS4lGAptEQUfvGoCbaX-19" value="Servidor Web" style="verticalAlign=top;align=left;spacingTop=8;spacingLeft=2;spacingRight=12;shape=cube;size=10;direction=south;fontStyle=4;html=1;whiteSpace=wrap;strokeColor=default;fontFamily=Helvetica;fontSize=12;fontColor=default;fillColor=default;" vertex="1" parent="bLS4lGAptEQUfvGoCbaX-26">
          <mxGeometry width="510" height="290" as="geometry" />
        </mxCell>
        <mxCell id="bLS4lGAptEQUfvGoCbaX-20" value="Capa de presentaci칩n&lt;br&gt;(interfaz web)" style="shape=module;align=left;spacingLeft=20;align=center;verticalAlign=top;whiteSpace=wrap;html=1;strokeColor=default;fontFamily=Helvetica;fontSize=12;fontColor=default;fillColor=default;" vertex="1" parent="bLS4lGAptEQUfvGoCbaX-26">
          <mxGeometry x="120" y="60" width="160" height="60" as="geometry" />
        </mxCell>
        <mxCell id="bLS4lGAptEQUfvGoCbaX-21" value="Interfaz&amp;nbsp; de base de datos" style="shape=module;align=left;spacingLeft=20;align=center;verticalAlign=top;whiteSpace=wrap;html=1;strokeColor=default;fontFamily=Helvetica;fontSize=12;fontColor=default;fillColor=default;" vertex="1" parent="bLS4lGAptEQUfvGoCbaX-26">
          <mxGeometry x="120" y="190" width="160" height="60" as="geometry" />
        </mxCell>
        <mxCell id="bLS4lGAptEQUfvGoCbaX-22" value="Archivo de&lt;br&gt;iniciar sesi칩n" style="shape=module;align=left;spacingLeft=20;align=center;verticalAlign=top;whiteSpace=wrap;html=1;strokeColor=default;fontFamily=Helvetica;fontSize=12;fontColor=default;fillColor=default;" vertex="1" parent="bLS4lGAptEQUfvGoCbaX-26">
          <mxGeometry x="353" y="190" width="110" height="60" as="geometry" />
        </mxCell>
        <mxCell id="bLS4lGAptEQUfvGoCbaX-25" value="" style="endArrow=classic;startArrow=classic;html=1;rounded=0;fontFamily=Helvetica;fontSize=12;fontColor=default;exitX=0.5;exitY=1;exitDx=0;exitDy=0;" edge="1" parent="bLS4lGAptEQUfvGoCbaX-26" source="bLS4lGAptEQUfvGoCbaX-20" target="bLS4lGAptEQUfvGoCbaX-21">
          <mxGeometry width="50" height="50" relative="1" as="geometry">
            <mxPoint x="70" y="120" as="sourcePoint" />
            <mxPoint x="120" y="70" as="targetPoint" />
          </mxGeometry>
        </mxCell>
        <mxCell id="bLS4lGAptEQUfvGoCbaX-35" value="" style="endArrow=classic;startArrow=classic;html=1;rounded=0;fontFamily=Helvetica;fontSize=12;fontColor=default;exitX=1;exitY=0.5;exitDx=0;exitDy=0;entryX=0.206;entryY=0.498;entryDx=0;entryDy=0;entryPerimeter=0;" edge="1" parent="bLS4lGAptEQUfvGoCbaX-26" source="bLS4lGAptEQUfvGoCbaX-21" target="bLS4lGAptEQUfvGoCbaX-22">
          <mxGeometry width="50" height="50" relative="1" as="geometry">
            <mxPoint x="293" y="219.5" as="sourcePoint" />
            <mxPoint x="366" y="219.5" as="targetPoint" />
          </mxGeometry>
        </mxCell>
        <mxCell id="bLS4lGAptEQUfvGoCbaX-27" value="" style="endArrow=classic;startArrow=classic;html=1;rounded=0;fontFamily=Helvetica;fontSize=12;fontColor=default;entryX=0.567;entryY=0.998;entryDx=0;entryDy=0;entryPerimeter=0;" edge="1" parent="1" source="bLS4lGAptEQUfvGoCbaX-20" target="bLS4lGAptEQUfvGoCbaX-11">
          <mxGeometry width="50" height="50" relative="1" as="geometry">
            <mxPoint x="510" y="480" as="sourcePoint" />
            <mxPoint x="615" y="160" as="targetPoint" />
          </mxGeometry>
        </mxCell>
        <mxCell id="bLS4lGAptEQUfvGoCbaX-34" value="" style="group" connectable="0" vertex="1" parent="1">
          <mxGeometry x="-130" y="430" width="240" height="230" as="geometry" />
        </mxCell>
        <mxCell id="bLS4lGAptEQUfvGoCbaX-31" value="Servidor&amp;nbsp; de Base de Datos" style="verticalAlign=top;align=left;spacingTop=8;spacingLeft=2;spacingRight=12;shape=cube;size=10;direction=south;fontStyle=4;html=1;whiteSpace=wrap;strokeColor=default;fontFamily=Helvetica;fontSize=12;fontColor=default;fillColor=default;" vertex="1" parent="bLS4lGAptEQUfvGoCbaX-34">
          <mxGeometry width="240" height="230.00000000000003" as="geometry" />
        </mxCell>
        <mxCell id="bLS4lGAptEQUfvGoCbaX-32" value="Servidor de base de datos" style="shape=module;align=left;spacingLeft=20;align=center;verticalAlign=top;whiteSpace=wrap;html=1;strokeColor=default;fontFamily=Helvetica;fontSize=12;fontColor=default;fillColor=default;" vertex="1" parent="bLS4lGAptEQUfvGoCbaX-34">
          <mxGeometry x="20" y="133.74191570881226" width="150" height="47.58620689655172" as="geometry" />
        </mxCell>
        <mxCell id="bLS4lGAptEQUfvGoCbaX-33" value="" style="endArrow=classic;startArrow=classic;html=1;rounded=0;fontFamily=Helvetica;fontSize=12;fontColor=default;entryX=0.054;entryY=0.425;entryDx=0;entryDy=0;entryPerimeter=0;" edge="1" parent="1" source="bLS4lGAptEQUfvGoCbaX-32" target="bLS4lGAptEQUfvGoCbaX-21">
          <mxGeometry width="50" height="50" relative="1" as="geometry">
            <mxPoint x="390" y="500" as="sourcePoint" />
            <mxPoint x="440" y="450" as="targetPoint" />
          </mxGeometry>
        </mxCell>
        <mxCell id="bLS4lGAptEQUfvGoCbaX-38" value="&lt;b style=&quot;font-size: 17px;&quot;&gt;TCP/IP&lt;/b&gt;" style="text;html=1;align=center;verticalAlign=middle;whiteSpace=wrap;rounded=0;fontFamily=Helvetica;fontSize=17;fontColor=default;" vertex="1" parent="1">
          <mxGeometry x="170" y="500" width="70" height="90" as="geometry" />
        </mxCell>
        <mxCell id="bLS4lGAptEQUfvGoCbaX-39" value="&lt;b style=&quot;font-size: 17px;&quot;&gt;&lt;font style=&quot;font-size: 17px;&quot;&gt;Teclado/Monitor&lt;/font&gt;&lt;/b&gt;" style="text;html=1;align=center;verticalAlign=middle;whiteSpace=wrap;rounded=0;fontFamily=Helvetica;fontSize=17;fontColor=default;" vertex="1" parent="1">
          <mxGeometry x="230" y="90" width="110" height="50" as="geometry" />
        </mxCell>
        <mxCell id="bLS4lGAptEQUfvGoCbaX-40" value="&lt;font style=&quot;font-size: 17px;&quot;&gt;&lt;b style=&quot;font-size: 17px;&quot;&gt;Conexi칩n HTTP/ HTTPS&lt;/b&gt;&lt;/font&gt;" style="text;html=1;align=center;verticalAlign=middle;whiteSpace=wrap;rounded=0;fontFamily=Helvetica;fontSize=17;fontColor=default;" vertex="1" parent="1">
          <mxGeometry x="550" y="250" width="170" height="60" as="geometry" />
        </mxCell>
      </root>
    </mxGraphModel>
  </diagram>
</mxfile>
